# File created by Blade
# Date/Time:  Wed Jan 21 19:19:27 2015
#---------------------------------------------------------
:version 1.10
:name HOM
:units
  mass 1.0
  length 1.000000
  angle deg
:documentation
     Acclaim Skeleton File
:root
   axis xyz
   order TX TY TZ RX RY RZ
   position 0.000000 0.000000 0.000000
   orientation 0 0 0
:bonedata
   begin
      id 1
      name RightUpLeg_dum
      direction -1.000000 0.000000 0.000000
      length 3.693983
      axis 0.0 0.0 0.0 xyz
   end
   begin
      id 2
      name LeftUpLeg_dum
      direction 1.000000 0.000000 0.000000
      length 3.693983
      axis 0.0 0.0 0.0 xyz
   end
   begin
      id 3
      name Spine_dum
      direction 0.000000 1.000000 0.000000
      length 2.392956
      axis 0.0 0.0 0.0 xyz
   end
   begin
      id 4
      name RightUpLeg
      direction 0.000000 -1.000000 0.000000
      length 15.795667
      axis 0.0 0.0 0.0 xyz
      dof rx ry rz
   end
   begin
      id 5
      name RightLeg
      direction 0.000000 -1.000000 0.000000
      length 14.766989
      axis 0.0 0.0 0.0 xyz
      dof rx ry rz
   end
   begin
      id 6
      name RightFoot
      direction 0.000000 -0.258819 0.965926
      length 4.962790
      axis 15.0 0.0 0.0 xyz
      dof rx ry rz
   end
   begin
      id 7
      name RightToeBase
      direction 0.000000 0.000000 1.000000
      length 2.952750
      axis 0.0 0.0 0.0 xyz
      dof rx ry rz
   end
   begin
      id 8
      name LeftUpLeg
      direction 0.000000 -1.000000 0.000000
      length 15.795667
      axis 0.0 0.0 0.0 xyz
      dof rx ry rz
   end
   begin
      id 9
      name LeftLeg
      direction 0.000000 -1.000000 0.000000
      length 14.766989
      axis 0.0 0.0 0.0 xyz
      dof rx ry rz
   end
   begin
      id 10
      name LeftFoot
      direction 0.000000 -0.258819 0.965926
      length 4.962790
      axis 15.0 0.0 0.0 xyz
      dof rx ry rz
   end
   begin
      id 11
      name LeftToeBase
      direction 0.000000 0.000000 1.000000
      length 2.952750
      axis 0.0 0.0 0.0 xyz
      dof rx ry rz
   end
   begin
      id 12
      name Spine
      direction 0.000000 1.000000 0.000000
      length 0.000000
      axis 0.0 0.0 0.0 xyz
      dof rx ry rz
   end
   begin
      id 13
      name Spine_dum1
      direction 0.000000 1.000000 0.000000
      length 13.207411
      axis 0.0 0.0 0.0 xyz
   end
   begin
      id 14
      name Spine_dum2
      direction 0.000000 1.000000 0.000000
      length 13.207411
      axis 0.0 0.0 0.0 xyz
   end
   begin
      id 15
      name Spine_dum3
      direction 0.000000 1.000000 0.000000
      length 19.250100
      axis 0.0 0.0 0.0 xyz
   end
   begin
      id 16
      name RightShoulder
      direction -1.000000 0.000000 0.000000
      length 8.140465
      axis 0.0 0.0 90.0 xyz
      dof rx ry rz
   end
   begin
      id 17
      name RightArm
      direction -1.000000 0.000000 0.000000
      length 10.649840
      axis 0.0 0.0 90.0 xyz
      dof rx ry rz
   end
   begin
      id 18
      name RightForeArm
      direction -1.000000 0.000000 0.000000
      length 8.304624
      axis 0.0 0.0 90.0 xyz
      dof ry rz rx
   end
   begin
      id 19
      name RightHand
      direction -1.000000 0.000000 0.000000
      length 0.000000
      axis 0.0 0.0 90.0 xyz
      dof rx ry rz
   end
   begin
      id 20
      name RightHand_dum1
      direction -1.000000 0.000000 0.000000
      length 3.937000
      axis 0.0 0.0 90.0 xyz
   end
   begin
      id 21
      name RightHand_dum2
      direction 0.000000 0.000000 0.000000
      length 0.000000
      axis 0.0 0.0 90.0 xyz
   end
   begin
      id 22
      name RightHandThumb1
      direction 0.000000 0.000000 1.000000
      length 3.937000
      axis 0.0 0.0 90.0 xyz
      dof rx rz ry
   end
   begin
      id 23
      name LeftShoulder
      direction 1.000000 0.000000 0.000000
      length 8.140465
      axis 0.0 0.0 -90.0 xyz
      dof rx ry rz
   end
   begin
      id 24
      name LeftArm
      direction 1.000000 0.000000 0.000000
      length 10.649840
      axis 0.0 0.0 -90.0 xyz
      dof rx ry rz
   end
   begin
      id 25
      name LeftForeArm
      direction 1.000000 0.000000 0.000000
      length 8.304624
      axis 0.0 0.0 -90.0 xyz
      dof ry rz rx
   end
   begin
      id 26
      name LeftHand
      direction 1.000000 0.000000 0.000000
      length 0.000000
      axis 0.0 0.0 -90.0 xyz
      dof rx ry rz
   end
   begin
      id 27
      name LeftHand_dum1
      direction 1.000000 0.000000 0.000000
      length 3.937000
      axis 0.0 0.0 -90.0 xyz
   end
   begin
      id 28
      name LeftHand_dum2
      direction 0.000000 0.000000 0.000000
      length 0.000000
      axis 0.0 0.0 -90.0 xyz
   end
   begin
      id 29
      name LeftHandThumb1
      direction 0.000000 0.000000 1.000000
      length 3.937000
      axis 0.0 0.0 -90.0 xyz
      dof rx rz ry
   end
   begin
      id 30
      name Head
      direction 0.000000 1.000000 0.000000
      length 4.527550
      axis 0.0 0.0 0.0 xyz
      dof rx ry rz
   end
:hierarchy
   begin
      root RightUpLeg_dum LeftUpLeg_dum Spine_dum
      RightUpLeg_dum RightUpLeg
      LeftUpLeg_dum LeftUpLeg
      Spine_dum Spine
      RightUpLeg RightLeg
      RightLeg RightFoot
      RightFoot RightToeBase
      LeftUpLeg LeftLeg
      LeftLeg LeftFoot
      LeftFoot LeftToeBase
      Spine Spine_dum1 Spine_dum2 Spine_dum3
      Spine_dum1 RightShoulder
      Spine_dum2 LeftShoulder
      Spine_dum3 Head
      RightShoulder RightArm
      RightArm RightForeArm
      RightForeArm RightHand
      RightHand RightHand_dum1 RightHand_dum2
      RightHand_dum2 RightHandThumb1
      LeftShoulder LeftArm
      LeftArm LeftForeArm
      LeftForeArm LeftHand
      LeftHand LeftHand_dum1 LeftHand_dum2
      LeftHand_dum2 LeftHandThumb1
   end

# File created by Blade
# Date/Time:  Wed Jan 21 19:19:18 2015
# Frame Rate: 120.000 fps
#------------------------------------------------------
:FULLY-SPECIFIED
:DEGREES
571
root -1.701904 14.257379 -2.286200 42.868125 -16.329220 22.147518
RightUpLeg -166.512232 -62.810019 26.903126
RightLeg 109.204344 -0.000000 -0.000000
RightFoot -15.986693 21.231428 19.807362
RightToeBase 21.857255 -0.000000 -0.000000
LeftUpLeg -28.373509 26.863289 27.985660
LeftLeg 14.086849 -0.000000 -0.000000
LeftFoot -26.806199 4.631563 -16.996728
LeftToeBase 5.729707 -0.000000 -0.000000
Spine -36.940154 12.914656 32.932689
RightShoulder -16.772125 18.643233 -17.277375
RightArm -13.132285 -7.788078 52.228081
RightForeArm -24.423312 -0.000000 47.033336
RightHand 38.408577 -0.000000 -59.902754
RightHandThumb1 -24.326973 -0.000000 -32.862282
LeftShoulder -22.567681 -24.702041 71.384221
LeftArm 71.461316 -46.473282 -13.970713
LeftForeArm 9.519190 -0.000000 11.831607
LeftHand -18.713264 0.000000 13.186975
LeftHandThumb1 -26.253704 0.000000 33.147579
Head -56.545948 8.787857 47.493676
572
root -1.702676 14.245521 -2.272666 42.822435 -16.329785 22.171189
RightUpLeg -166.499935 -62.887516 26.854919
RightLeg 109.241408 -0.000000 -0.000000
RightFoot -15.981020 21.254571 19.845601
RightToeBase 21.890319 -0.000000 -0.000000
LeftUpLeg -28.325526 26.989926 27.928810
LeftLeg 14.053639 -0.000000 -0.000000
LeftFoot -26.785793 4.456242 -17.004313
LeftToeBase 5.690781 -0.000000 -0.000000
Spine -36.967393 12.886628 32.971577
RightShoulder -16.844907 18.628218 -17.306121
RightArm -13.140548 -7.751936 52.217595
RightForeArm -24.528867 -0.000000 47.289772
RightHand 38.444878 -0.000000 -59.508969
RightHandThumb1 -24.326973 -0.000000 -32.862282
LeftShoulder -22.484477 -24.547385 71.301444
LeftArm 71.686270 -46.671156 -14.091007
LeftForeArm 9.639995 -0.000000 11.833456
LeftHand -18.686292 -0.000000 13.109057
LeftHandThumb1 -26.253704 0.000000 33.147579
Head -56.531704 8.761009 47.482472
573
root -1.703106 14.235965 -2.260344 42.760397 -16.316904 22.204450
RightUpLeg -166.492339 -62.987956 26.821842
RightLeg 109.269242 -0.000000 -0.000000
RightFoot -15.946539 21.321266 19.884424
RightToeBase 21.875194 -0.000000 -0.000000
LeftUpLeg -28.272983 27.053927 27.891939
LeftLeg 14.026051 -0.000000 -0.000000
LeftFoot -26.760412 4.345482 -16.959754
LeftToeBase 5.644584 -0.000000 -0.000000
Spine -36.976604 12.837409 33.029432
RightShoulder -16.884488 18.563856 -17.281053
RightArm -13.131390 -7.722166 52.157261
RightForeArm -24.606927 -0.000000 47.626862
RightHand 38.397152 -0.000000 -59.033134
RightHandThumb1 -24.326973 -0.000000 -32.862282
LeftShoulder -22.446482 -24.560953 71.290090
LeftArm 71.691674 -46.659304 -14.025163
LeftForeArm 9.618863 -0.000000 11.982445
LeftHand -18.734474 -0.000000 13.128078
LeftHandThumb1 -26.253704 0.000000 33.147579
Head -56.560306 8.754765 47.465778
574
root -1.701259 14.225450 -2.247762 42.693547 -16.292906 22.251249
RightUpLeg -166.507287 -63.101594 26.803061
RightLeg 109.301305 -0.000000 -0.000000
RightFoot -15.961239 21.349627 19.857199
RightToeBase 21.937113 -0.000000 -0.000000
LeftUpLeg -28.233625 27.038956 27.876931
LeftLeg 14.036706 -0.000000 -0.000000
LeftFoot -26.794750 4.242782 -17.022747
LeftToeBase 5.696635 -0.000000 -0.000000
Spine -36.997208 12.781869 33.075004
RightShoulder -16.913101 18.520204 -17.264623
RightArm -13.192258 -7.705404 52.080901
RightForeArm -24.641461 -0.000000 48.030194
RightHand 38.403786 -0.000000 -58.476875
RightHandThumb1 -24.326973 -0.000000 -32.862282
LeftShoulder -22.401334 -24.457721 71.250771
LeftArm 71.896816 -46.786659 -14.256336
LeftForeArm 9.708458 -0.000000 12.165776
LeftHand -18.803358 -0.000000 13.084249
LeftHandThumb1 -26.253704 0.000000 33.147579
Head -56.610470 8.691328 47.478873
575
root -1.698421 14.216658 -2.236730 42.632126 -16.269191 22.291816
RightUpLeg -166.519419 -63.201783 26.790929
RightLeg 109.322534 -0.000000 -0.000000
RightFoot -15.948281 21.380052 19.877066
RightToeBase 21.913495 -0.000000 -0.000000
LeftUpLeg -28.196909 26.965854 27.893211
LeftLeg 14.069928 -0.000000 -0.000000
LeftFoot -26.845620 4.218106 -17.085239
LeftToeBase 5.704704 -0.000000 -0.000000
Spine -37.004712 12.735498 33.127864
RightShoulder -16.972873 18.500091 -17.247565
RightArm -13.189702 -7.768932 51.993110
RightForeArm -24.678590 -0.000000 48.332171
RightHand 38.319370 0.000000 -58.291592
RightHandThumb1 -24.326973 -0.000000 -32.862282
LeftShoulder -22.399216 -24.465263 71.278547
LeftArm 72.055106 -46.767196 -14.436696
LeftForeArm 9.775205 -0.000000 12.275141
LeftHand -18.706266 -0.000000 13.152940
LeftHandThumb1 -26.253704 0.000000 33.147579
Head -56.672114 8.671662 47.433218
576
root -1.694124 14.208371 -2.227466 42.569234 -16.246646 22.341583
RightUpLeg -166.518263 -63.294994 26.756493
RightLeg 109.343925 -0.000000 -0.000000
RightFoot -16.012386 21.352121 19.805229
RightToeBase 21.977278 -0.000000 -0.000000
LeftUpLeg -28.172589 26.849570 27.915643
LeftLeg 14.130179 -0.000000 -0.000000
LeftFoot -26.921226 4.207014 -17.177370
LeftToeBase 5.716485 -0.000000 -0.000000
Spine -37.001552 12.685535 33.187377
RightShoulder -16.992493 18.473823 -17.256292
RightArm -13.237786 -7.790327 51.930246
RightForeArm -24.699889 0.000000 48.664652
RightHand 38.334388 -0.000000 -57.994838
RightHandThumb1 -24.326973 -0.000000 -32.862282
LeftShoulder -22.345568 -24.425134 71.238310
LeftArm 71.960099 -46.784839 -14.253226
LeftForeArm 9.766388 -0.000000 12.337587
LeftHand -18.602092 -0.000000 13.193390
LeftHandThumb1 -26.253704 0.000000 33.147579
Head -56.763710 8.667082 47.341569
577
root -1.689976 14.201527 -2.218995 42.503980 -16.211814 22.385781
RightUpLeg -166.510130 -63.401952 26.730549
RightLeg 109.360830 -0.000000 -0.000000
RightFoot -16.045085 21.354526 19.738380
RightToeBase 21.982477 -0.000000 -0.000000
LeftUpLeg -28.154489 26.686238 27.968906
LeftLeg 14.218357 -0.000000 -0.000000
LeftFoot -27.009659 4.234054 -17.274808
LeftToeBase 5.764172 -0.000000 -0.000000
Spine -37.000304 12.653821 33.232222
RightShoulder -17.022508 18.440180 -17.232016
RightArm -13.293364 -7.837322 51.828519
RightForeArm -24.746101 -0.000000 49.016342
RightHand 38.177142 -0.000000 -57.717011
RightHandThumb1 -24.326973 -0.000000 -32.862282
LeftShoulder -22.340220 -24.451956 71.242012
LeftArm 72.005072 -46.736372 -14.214105
LeftForeArm 9.778598 -0.000000 12.357674
LeftHand -18.572039 0.000000 13.294131
LeftHandThumb1 -26.253704 0.000000 33.147579
Head -56.886714 8.666565 47.235052
578
root -1.686426 14.194910 -2.212021 42.458593 -16.192596 22.407141
RightUpLeg -166.465492 -63.475824 26.671187
RightLeg 109.375050 -0.000000 -0.000000
RightFoot -16.082048 21.340171 19.677307
RightToeBase 21.939147 -0.000000 -0.000000
LeftUpLeg -28.143925 26.558283 28.025443
LeftLeg 14.314831 -0.000000 -0.000000
LeftFoot -27.104044 4.268994 -17.368641
LeftToeBase 5.801722 -0.000000 -0.000000
Spine -36.991960 12.646804 33.293525
RightShoulder -17.022951 18.411053 -17.241515
RightArm -13.384080 -7.816086 51.773653
RightForeArm -24.787893 -0.000000 49.349386
RightHand 38.102262 -0.000000 -57.625057
RightHandThumb1 -24.326973 -0.000000 -32.862282
LeftShoulder -22.357212 -24.468078 71.229697
LeftArm 72.333906 -46.735086 -14.531338
LeftForeArm 9.960633 -0.000000 12.358646
LeftHand -18.561791 -0.000000 13.323005
LeftHandThumb1 -26.253704 0.000000 33.147579
Head -56.984002 8.664586 47.171592
579
root -1.682815 14.188454 -2.204205 42.424200 -16.163789 22.438183
RightUpLeg -166.466793 -63.558442 26.655392
RightLeg 109.391336 -0.000000 -0.000000
RightFoot -16.139512 21.342267 19.617666
RightToeBase 22.009426 -0.000000 -0.000000
LeftUpLeg -28.148084 26.413626 28.077360
LeftLeg 14.406613 -0.000000 -0.000000
LeftFoot -27.191425 4.299371 -17.442646
LeftToeBase 5.806528 -0.000000 -0.000000
Spine -37.016958 12.632614 33.340680
RightShoulder -17.028341 18.372613 -17.251531
RightArm -13.439893 -7.791213 51.728205
RightForeArm -24.833642 -0.000000 49.615681
RightHand 38.056067 -0.000000 -57.416576
RightHandThumb1 -24.326973 -0.000000 -32.862282
LeftShoulder -22.316222 -24.509064 71.225508
LeftArm 72.354250 -46.670641 -14.433334
LeftForeArm 9.895609 0.000000 12.307311
LeftHand -18.492740 -0.000000 13.370928
LeftHandThumb1 -26.253704 0.000000 33.147579
Head -57.042968 8.681356 47.140335
580
root -1.680822 14.183212 -2.197976 42.388081 -16.154290 22.463661
RightUpLeg -166.418514 -63.620138 26.578509
RightLeg 109.406264 -0.000000 -0.000000
RightFoot -16.168087 21.328928 19.585864
RightToeBase 22.051708 -0.000000 -0.000000
LeftUpLeg -28.142479 26.268487 28.129789
LeftLeg 14.504621 -0.000000 -0.000000
LeftFoot -27.276322 4.389267 -17.473882
LeftToeBase 5.833956 -0.000000 -0.000000
Spine -37.022897 12.612721 33.383960
RightShoulder -17.026086 18.332583 -17.244556
RightArm -13.468887 -7.766722 51.679854
RightForeArm -24.795493 -0.000000 49.853191
RightHand 38.147299 -0.000000 -57.063866
RightHandThumb1 -24.326973 -0.000000 -32.862282
LeftShoulder -22.332413 -24.607808 71.293375
LeftArm 72.428304 -46.516176 -14.426788
LeftForeArm 9.841576 -0.000000 12.274094
LeftHand -18.566856 -0.000000 13.383444
LeftHandThumb1 -26.253704 0.000000 33.147579
Head -57.089701 8.725029 47.143571
581
root -1.677723 14.175290 -2.191886 42.377970 -16.143776 22.483022
RightUpLeg -166.422246 -63.683254 26.546737
RightLeg 109.418199 -0.000000 -0.000000
RightFoot -16.133833 21.359027 19.660837
RightToeBase 22.038950 -0.000000 -0.000000
LeftUpLeg -28.154738 26.118355 28.191715
LeftLeg 14.611650 -0.000000 -0.000000
LeftFoot -27.386226 4.466521 -17.538244
LeftToeBase 5.835088 -0.000000 -0.000000
Spine -37.062357 12.588871 33.418381
RightShoulder -17.001618 18.303109 -17.236465
RightArm -13.506064 -7.742161 51.650112
RightForeArm -24.840235 -0.000000 50.048354
RightHand 38.094363 -0.000000 -56.909328
RightHandThumb1 -24.326973 -0.000000 -32.862282
LeftShoulder -22.309932 -24.532033 71.306001
LeftArm 72.785239 -46.569141 -14.769495
LeftForeArm 10.013219 -0.000000 12.207528
LeftHand -18.483374 -0.000000 13.277720
LeftHandThumb1 -26.253704 0.000000 33.147579
Head -57.075920 8.693904 47.278791
